<svg xmlns="http://www.w3.org/2000/svg" width="124.621" height="98.382" viewBox="0 0 124.621 98.382">
  <g id="Group_793" data-name="Group 793" transform="translate(0 0.01)">
    <path id="Path_459" data-name="Path 459" d="M181.418,104.924A25.714,25.714,0,1,1,155.7,79.21,25.716,25.716,0,0,1,181.418,104.924Z" transform="translate(-85.956 -52.385)" fill="#f1f7f8" opacity="0.85"/>
    <path id="Path_460" data-name="Path 460" d="M329.628,56.4,326,52.778l3.625-3.628,3.628,3.628Zm-2.459-3.625,2.459,2.459,2.463-2.459-2.463-2.463Z" transform="translate(-215.569 -32.507)" fill="#1c428c"/>
    <rect id="Rectangle_1036" data-name="Rectangle 1036" width="27.852" height="1.098" transform="translate(89.608 69.016)" fill="#03abf2"/>
    <rect id="Rectangle_1037" data-name="Rectangle 1037" width="22.418" height="1.101" transform="translate(88.9 65.778)" fill="#03abf2"/>
    <rect id="Rectangle_1038" data-name="Rectangle 1038" width="27.442" height="1.101" transform="translate(89.601 72.817) rotate(-0.069)" fill="#03abf2"/>
    <path id="Path_461" data-name="Path 461" d="M288.56,146.11l0-1.1L291.2,145l-.03-24.037-27.327.03-.1-1.172,27.977.044a.551.551,0,0,1,.549.549l.034,25.135a.549.549,0,0,1-.549.549Z" transform="translate(-174.399 -79.238)" fill="#03abf2"/>
    <g id="Group_795" data-name="Group 795" transform="translate(16.829 13.875)">
      <path id="Path_464" data-name="Path 464" d="M55.239,72.516a.549.549,0,0,1-.549-.549V43.659a.549.549,0,0,1,1.1,0V71.964A.549.549,0,0,1,55.239,72.516Z" transform="translate(-52.993 -42.388)" fill="#1c428c"/>
      <g id="Group_794" data-name="Group 794">
        <path id="Path_465" data-name="Path 465" d="M49.68,43.4l.4.376,1.846-1.985,1.846,1.985.4-.376L51.926,40.98Z" transform="translate(-49.68 -40.98)" fill="#1c428c"/>
      </g>
    </g>
    <g id="Group_797" data-name="Group 797" transform="translate(120.126 35.142)">
      <path id="Path_466" data-name="Path 466" d="M360.179,119.114a.549.549,0,0,1-.549-.549V105.449a.549.549,0,0,1,1.1,0v13.116A.546.546,0,0,1,360.179,119.114Z" transform="translate(-357.933 -104.514)" fill="#1c428c"/>
      <g id="Group_796" data-name="Group 796">
        <path id="Path_467" data-name="Path 467" d="M354.62,106.179l.4.373,1.843-1.985,1.846,1.985.4-.373-2.249-2.419Z" transform="translate(-354.62 -103.76)" fill="#1c428c"/>
      </g>
    </g>
    <g id="Group_798" data-name="Group 798" transform="translate(69.998 -0.01)">
      <path id="Path_471" data-name="Path 471" d="M207.053,9a.413.413,0,0,1,0-.827L212.6,8.14h0a.413.413,0,0,1,0,.827L207.053,9Z" transform="translate(-206.64 -5.379)" fill="#ff5963"/>
      <path id="Path_472" data-name="Path 472" d="M215.231,6.372a.414.414,0,0,1-.413-.41L214.78.407a.417.417,0,0,1,.41-.417h0a.414.414,0,0,1,.413.41l.037,5.555a.413.413,0,0,1-.413.417Z" transform="translate(-212.023 0.01)" fill="#ff5963"/>
    </g>
    <g id="Group_799" data-name="Group 799" transform="translate(45.927 91.993)">
      <path id="Path_473" data-name="Path 473" d="M135.993,280.59a.412.412,0,0,1,0-.823l5.555-.037h0a.412.412,0,1,1,0,.823l-5.559.037Z" transform="translate(-135.58 -276.973)" fill="#03abf2"/>
      <path id="Path_474" data-name="Path 474" d="M144.171,277.969a.414.414,0,0,1-.413-.41L143.72,272a.412.412,0,0,1,.41-.413h0a.414.414,0,0,1,.413.41l.037,5.555a.417.417,0,0,1-.413.413Z" transform="translate(-140.963 -271.59)" fill="#03abf2"/>
    </g>
    <g id="Group_801" data-name="Group 801" transform="translate(94.412 6.85)">
      <path id="Path_475" data-name="Path 475" d="M288.949,43.546A.549.549,0,0,1,288.4,43l-.014-9.41-3.316-2.663-.041-7.652a.549.549,0,0,1,.545-.552h0a.548.548,0,0,1,.549.545l.037,7.127,3.32,2.666.017,9.935a.552.552,0,0,1-.552.552Z" transform="translate(-282.889 -21.88)" fill="#ff5963"/>
      <g id="Group_800" data-name="Group 800">
        <path id="Path_476" data-name="Path 476" d="M278.71,23.153l.488.447,2.2-2.392,2.226,2.371.481-.454-2.713-2.886Z" transform="translate(-278.71 -20.24)" fill="#ff5963"/>
      </g>
    </g>
    <path id="Path_477" data-name="Path 477" d="M1.636,122.146a1.638,1.638,0,1,1,1.64-1.636A1.637,1.637,0,0,1,1.636,122.146Zm0-2.6a.969.969,0,1,0,.969.969A.971.971,0,0,0,1.636,119.541Z" transform="translate(0 -78.61)" fill="#1c428c"/>
    <path id="Path_478" data-name="Path 478" d="M30.568,201.974a.874.874,0,1,1-.874-.874A.874.874,0,0,1,30.568,201.974Z" transform="translate(-19.057 -132.985)" fill="#1c428c"/>
    <path id="Path_479" data-name="Path 479" d="M79.239,103.029a.549.549,0,0,1-.549-.549v-37.6a6.085,6.085,0,0,1,5.908-5.8h2.408a.549.549,0,0,1,0,1.1H84.6a5.009,5.009,0,0,0-4.81,4.7v37.6A.547.547,0,0,1,79.239,103.029Z" transform="translate(-52.034 -39.074)" fill="#1c428c"/>
    <path id="Path_480" data-name="Path 480" d="M179.152,234.778H139.329a.549.549,0,0,1,0-1.1h39.823a4.615,4.615,0,0,0,4.62-4.482v-3.54a.549.549,0,0,1,1.1,0v3.54A5.725,5.725,0,0,1,179.152,234.778Z" transform="translate(-91.769 -148.862)" fill="#1c428c"/>
    <path id="Path_481" data-name="Path 481" d="M256.47,74.384a.549.549,0,0,1-.549-.549V64.069a4.835,4.835,0,0,0-4.62-4.681h-2.862a.549.549,0,1,1,0-1.1H251.3a5.9,5.9,0,0,1,5.721,5.779v9.766A.549.549,0,0,1,256.47,74.384Z" transform="translate(-163.918 -38.551)" fill="#1c428c"/>
    <path id="Path_482" data-name="Path 482" d="M141.917,99.708H79.249a.549.549,0,0,1,0-1.1h62.668a.549.549,0,1,1,0,1.1Z" transform="translate(-52.041 -65.213)" fill="#1c428c"/>
    <path id="Path_483" data-name="Path 483" d="M131.731,146.358H79.239a.549.549,0,1,1,0-1.1h52.492a.549.549,0,1,1,0,1.1Z" transform="translate(-52.034 -96.06)" fill="#1c428c"/>
    <path id="Path_484" data-name="Path 484" d="M149.125,203.278H113.239a.549.549,0,1,1,0-1.1h35.887a.549.549,0,0,1,0,1.1Z" transform="translate(-74.517 -133.699)" fill="#1c428c"/>
    <path id="Path_485" data-name="Path 485" d="M139.329,140.121a.549.549,0,0,1-.549-.549V100.739a.549.549,0,1,1,1.1,0v38.834A.549.549,0,0,1,139.329,140.121Z" transform="translate(-91.769 -66.258)" fill="#1c428c"/>
    <path id="Path_486" data-name="Path 486" d="M208.109,142.559a.549.549,0,0,1-.549-.549V99.159a.549.549,0,0,1,1.1,0V142.01A.546.546,0,0,1,208.109,142.559Z" transform="translate(-137.25 -65.213)" fill="#1c428c"/>
    <path id="Path_487" data-name="Path 487" d="M104.445,57.7a2.828,2.828,0,0,1-2.825-2.825V49.255a2.825,2.825,0,0,1,5.65,0v5.623A2.828,2.828,0,0,1,104.445,57.7Zm0-10.176a1.73,1.73,0,0,0-1.728,1.728v5.623a1.728,1.728,0,1,0,3.455,0V49.255A1.73,1.73,0,0,0,104.445,47.528Z" transform="translate(-67.197 -30.709)" fill="#1c428c"/>
    <path id="Path_488" data-name="Path 488" d="M236.475,57.7a2.828,2.828,0,0,1-2.825-2.825V49.255a2.825,2.825,0,0,1,5.65,0v5.623A2.826,2.826,0,0,1,236.475,57.7Zm0-10.176a1.73,1.73,0,0,0-1.728,1.728v5.623a1.728,1.728,0,0,0,3.455,0V49.255A1.731,1.731,0,0,0,236.475,47.528Z" transform="translate(-154.502 -30.709)" fill="#1c428c"/>
    <path id="Path_489" data-name="Path 489" d="M170.855,57.7a2.828,2.828,0,0,1-2.825-2.825V49.255a2.825,2.825,0,0,1,5.65,0v5.623A2.826,2.826,0,0,1,170.855,57.7Zm0-10.176a1.73,1.73,0,0,0-1.728,1.728v5.623a1.728,1.728,0,0,0,3.455,0V49.255A1.731,1.731,0,0,0,170.855,47.528Z" transform="translate(-111.111 -30.709)" fill="#1c428c"/>
    <path id="Path_490" data-name="Path 490" d="M137.655,57.7a2.828,2.828,0,0,1-2.825-2.825V49.255a2.825,2.825,0,0,1,5.65,0v5.623A2.828,2.828,0,0,1,137.655,57.7Zm0-10.176a1.73,1.73,0,0,0-1.728,1.728v5.623a1.728,1.728,0,1,0,3.455,0V49.255A1.73,1.73,0,0,0,137.655,47.528Z" transform="translate(-89.157 -30.709)" fill="#1c428c"/>
    <path id="Path_491" data-name="Path 491" d="M204.065,57.7a2.828,2.828,0,0,1-2.825-2.825V49.255a2.825,2.825,0,1,1,5.65,0v5.623A2.828,2.828,0,0,1,204.065,57.7Zm0-10.176a1.73,1.73,0,0,0-1.728,1.728v5.623a1.728,1.728,0,0,0,3.455,0V49.255A1.73,1.73,0,0,0,204.065,47.528Z" transform="translate(-133.071 -30.709)" fill="#1c428c"/>
    <path id="Path_492" data-name="Path 492" d="M128.836,60.178h-2.947a.549.549,0,0,1,0-1.1h2.947a.549.549,0,1,1,0,1.1Z" transform="translate(-82.882 -39.074)" fill="#1c428c"/>
    <path id="Path_493" data-name="Path 493" d="M156.277,60.178h-5.088a.549.549,0,1,1,0-1.1h5.088a.549.549,0,0,1,0,1.1Z" transform="translate(-99.611 -39.074)" fill="#1c428c"/>
    <path id="Path_494" data-name="Path 494" d="M190.264,60.178h-4.285a.549.549,0,1,1,0-1.1h4.285a.549.549,0,0,1,0,1.1Z" transform="translate(-122.616 -39.074)" fill="#1c428c"/>
    <path id="Path_495" data-name="Path 495" d="M222.419,60.178H217.6a.549.549,0,1,1,0-1.1h4.82a.549.549,0,1,1,0,1.1Z" transform="translate(-143.525 -39.074)" fill="#1c428c"/>
    <path id="Path_496" data-name="Path 496" d="M168.15,113.938h-5.891a.549.549,0,0,1,0-1.1h5.891a.549.549,0,0,1,0,1.1Z" transform="translate(-106.931 -74.623)" fill="#1c428c"/>
    <path id="Path_497" data-name="Path 497" d="M105.69,128.958H99.8a.549.549,0,1,1,0-1.1h5.891a.549.549,0,1,1,0,1.1Z" transform="translate(-65.63 -84.555)" fill="#1c428c"/>
    <path id="Path_498" data-name="Path 498" d="M164.132,126.588h-1.873a.549.549,0,1,1,0-1.1h1.873a.549.549,0,1,1,0,1.1Z" transform="translate(-106.931 -82.987)" fill="#1c428c"/>
    <path id="Path_499" data-name="Path 499" d="M100.353,113.938H98.209a.549.549,0,0,1,0-1.1h2.144a.549.549,0,0,1,0,1.1Z" transform="translate(-64.578 -74.623)" fill="#1c428c"/>
    <g id="Group_802" data-name="Group 802" transform="translate(84.971 37.218)">
      <path id="Path_500" data-name="Path 500" d="M251.389,111.536a.549.549,0,0,1-.549-.549v-.549a.549.549,0,1,1,1.1,0v.549A.549.549,0,0,1,251.389,111.536Z" transform="translate(-250.84 -109.89)" fill="#1c428c"/>
      <path id="Path_501" data-name="Path 501" d="M251.389,153.081a.549.549,0,0,1-.549-.549v-1.1a.549.549,0,1,1,1.1,0v1.1A.549.549,0,0,1,251.389,153.081Zm0-3.567a.549.549,0,0,1-.549-.549v-1.1a.549.549,0,1,1,1.1,0v1.1A.549.549,0,0,1,251.389,149.514Zm0-3.567a.549.549,0,0,1-.549-.549v-1.1a.549.549,0,1,1,1.1,0v1.1A.546.546,0,0,1,251.389,145.947Zm0-3.564a.549.549,0,0,1-.549-.549v-1.1a.549.549,0,0,1,1.1,0v1.1A.549.549,0,0,1,251.389,142.384Zm0-3.567a.549.549,0,0,1-.549-.549v-1.1a.549.549,0,1,1,1.1,0v1.1A.549.549,0,0,1,251.389,138.817Zm0-3.567a.549.549,0,0,1-.549-.549v-1.1a.549.549,0,1,1,1.1,0v1.1A.546.546,0,0,1,251.389,135.25Zm0-3.567a.549.549,0,0,1-.549-.549v-1.1a.549.549,0,0,1,1.1,0v1.1A.546.546,0,0,1,251.389,131.683Zm0-3.564a.549.549,0,0,1-.549-.549v-1.1a.549.549,0,0,1,1.1,0v1.1A.549.549,0,0,1,251.389,128.119Zm0-3.567a.549.549,0,0,1-.549-.549v-1.1a.549.549,0,0,1,1.1,0V124A.549.549,0,0,1,251.389,124.552Zm0-3.567a.549.549,0,0,1-.549-.549v-1.1a.549.549,0,1,1,1.1,0v1.1A.546.546,0,0,1,251.389,120.985Z" transform="translate(-250.84 -115.775)" fill="#1c428c"/>
      <path id="Path_502" data-name="Path 502" d="M251.389,225.716a.549.549,0,0,1-.549-.549v-.549a.549.549,0,1,1,1.1,0v.549A.549.549,0,0,1,251.389,225.716Z" transform="translate(-250.84 -185.392)" fill="#1c428c"/>
    </g>
    <path id="Path_503" data-name="Path 503" d="M42.089,146.272a.549.549,0,0,1-.549-.549V133.939a.549.549,0,1,1,1.1,0v11.785A.549.549,0,0,1,42.089,146.272Z" transform="translate(-27.469 -88.211)" fill="#1c428c"/>
    <g id="Group_804" data-name="Group 804" transform="translate(17.171 66.337)">
      <g id="Group_803" data-name="Group 803" transform="translate(0 4.573)">
        <path id="Path_504" data-name="Path 504" d="M61.926,231.819a11.234,11.234,0,1,1,11.233-11.233A11.248,11.248,0,0,1,61.926,231.819Zm0-21.368a10.135,10.135,0,1,0,10.135,10.135A10.146,10.146,0,0,0,61.926,210.451Z" transform="translate(-50.69 -209.35)" fill="#03abf2"/>
      </g>
      <path id="Path_505" data-name="Path 505" d="M72.509,236.308l-5.095-3.679a.551.551,0,0,1,.644-.894L72.3,234.8l5.1-6.436a.55.55,0,0,1,.86.684Z" transform="translate(-61.598 -217.213)" fill="#03abf2"/>
      <path id="Path_506" data-name="Path 506" d="M78.045,199.359h-7.5a.549.549,0,0,1-.549-.549V196.4a.549.549,0,0,1,.549-.549h7.5a.549.549,0,0,1,.549.549v2.412A.549.549,0,0,1,78.045,199.359Zm-6.948-1.1h6.4v-1.311H71.1Z" transform="translate(-63.459 -195.85)" fill="#03abf2"/>
    </g>
    <rect id="Rectangle_1041" data-name="Rectangle 1041" width="23.035" height="19.647" transform="translate(47.214 49.803)" fill="#ff5963" stroke="#03abf2" stroke-miterlimit="10" stroke-width="3" opacity="0"/>
    <path id="Path_507" data-name="Path 507" d="M164.65,168.775a.556.556,0,0,1-.379-.152l-4.305-4.089a.549.549,0,1,1,.755-.8l3.868,3.672L169.6,161a.55.55,0,0,1,.867.677l-5.383,6.89a.544.544,0,0,1-.393.21Z" transform="translate(-105.664 -106.327)" fill="#ff5963"/>
  </g>
</svg>
