<svg xmlns="http://www.w3.org/2000/svg" width="64.863" height="47.707" viewBox="0 0 64.863 47.707">
  <g id="XMLID_1_" transform="translate(0.513 0.547)">
    <g id="XMLID_6_">
      <path id="XMLID_30_" d="M50.89,13.52l-.25-.83-2.59.83Z" fill="none" stroke="#e83d52" stroke-width="1"/>
      <path id="XMLID_29_" d="M41.19,13.5l8.83-2.79L48.77,6.77,27.43,13.5Z" fill="none" stroke="#e83d52" stroke-width="1"/>
      <path id="XMLID_28_" d="M48.77,6.77,27.43,13.5H41.19l8.83-2.79Z" fill="none" stroke="#e83d52" stroke-width="1"/>
      <path id="XMLID_27_" d="M48.05,13.52h2.84l-.25-.83Z" fill="none" stroke="#e83d52" stroke-width="1"/>
      <path id="XMLID_26_" d="M13.33,14.43a3.083,3.083,0,0,1,2.19-.91h5.04L48.15,4.8l-.62-1.97a1.036,1.036,0,0,0-1.3-.67L2.79,15.87a.974.974,0,0,0-.68,1.3l.62,1.97,9.61-3.03A3.208,3.208,0,0,1,13.33,14.43Z" fill="none" stroke="#e83d52" stroke-width="1"/>
      <path id="XMLID_22_" d="M17.59,23.43a4.72,4.72,0,0,0,7.11,4.1,4.748,4.748,0,1,0,2.39-8.85,4.764,4.764,0,0,0-2.39.65,4.589,4.589,0,0,0-2.36-.65A4.748,4.748,0,0,0,17.59,23.43Zm9.49,0a4.659,4.659,0,0,0-.61-2.29,3.1,3.1,0,0,1,.61-.09,2.37,2.37,0,1,1,0,4.74,2.146,2.146,0,0,1-.61-.09A4.527,4.527,0,0,0,27.08,23.43Zm-7.12,0a2.37,2.37,0,1,1,2.37,2.37A2.382,2.382,0,0,1,19.96,23.43Z" fill="#e83d52" stroke="#e83d52" stroke-width="1"/>
      <path id="XMLID_21_" d="M15.51,15.58a1.046,1.046,0,0,0-1.04,1.04V43.54h.01a1.046,1.046,0,0,0,1.04,1.04H61.07a1.046,1.046,0,0,0,1.04-1.04V16.61a1.046,1.046,0,0,0-1.04-1.04H15.51Z" fill="none" stroke="#e83d52" stroke-width="1"/>
      <path id="XMLID_18_" d="M63.85,43.42V16.82a3.231,3.231,0,0,0-3.22-3.22H15.49a2.974,2.974,0,0,0-3.02,2.48l-.13.04a3.359,3.359,0,0,0-.08.71v1.49l.16-.05v4.35l-.16.05v2.17l.16-.05V43.25l-.16.05v.14a3.242,3.242,0,0,0,.58,1.84.734.734,0,0,0,.08-.02,3.077,3.077,0,0,0,2.59,1.4H60.62A3.263,3.263,0,0,0,63.85,43.42Zm-1.61,0a1.615,1.615,0,0,1-1.61,1.61H15.49a1.615,1.615,0,0,1-1.61-1.61V16.82a1.615,1.615,0,0,1,1.61-1.61H60.63a1.615,1.615,0,0,1,1.61,1.61v26.6Z" fill="#e83d52" stroke="#e83d52" stroke-width="1"/>
      <rect id="XMLID_17_" width="13.33" height="9" stroke-width="1" fill="#e83d52" stroke="#e83d52" transform="translate(45.98 19.04)"/>
      <rect id="XMLID_16_" width="30.3" height="1.62" stroke-width="1" fill="#e83d52" stroke="#e83d52" transform="translate(17.22 32.69)"/>
      <rect id="XMLID_13_" width="8.61" height="1.62" stroke-width="1" fill="#e83d52" stroke="#e83d52" transform="translate(50.69 32.69)"/>
      <rect id="XMLID_12_" width="12.67" height="1.62" stroke-width="1" fill="#e83d52" stroke="#e83d52" transform="translate(17.22 37.57)"/>
      <rect id="XMLID_11_" width="1.62" height="1.62" stroke-width="1" fill="#e83d52" stroke="#e83d52" transform="translate(46.71 38.38)"/>
      <rect id="XMLID_10_" width="1.62" height="1.62" stroke-width="1" fill="#e83d52" stroke="#e83d52" transform="translate(51.91 38.38)"/>
      <rect id="XMLID_9_" width="1.62" height="1.62" stroke-width="1" fill="#e83d52" stroke="#e83d52" transform="translate(57.11 38.38)"/>
      <path id="XMLID_8_" d="M48.77,6.77,27.43,13.5H41.19l8.83-2.79Z" fill="none" stroke="#e83d52" stroke-width="1"/>
      <path id="XMLID_7_" d="M48.05,13.52h2.84l-.25-.83Z" fill="none" stroke="#e83d52" stroke-width="1"/>
    </g>
    <path id="XMLID_2_" d="M49.49,2.2A2.963,2.963,0,0,0,45.6.18L2.16,13.9A3,3,0,0,0,.14,17.79L8.25,43.46a3.072,3.072,0,0,0,2.96,2.17,13.2,13.2,0,0,0,1.64-.37,3.168,3.168,0,0,1-.58-1.84v-.14l-.74.23a1.041,1.041,0,0,1-1.3-.67l-5-15.79,7.03-2.22V22.66L4.61,25.07,3.36,21.12l8.9-2.81V16.82a3.359,3.359,0,0,1,.08-.71L2.73,19.14l-.62-1.97a.971.971,0,0,1,.68-1.3L46.23,2.16a1.036,1.036,0,0,1,1.3.67l.62,1.97L20.56,13.52H15.52a3.1,3.1,0,0,0-2.19.91,3.2,3.2,0,0,1,2.16-.84h37.6l-.03-.09ZM27.43,13.5,48.77,6.77l1.25,3.94L41.19,13.5Zm20.62.02,2.59-.82.25.82Z" fill="#e83d52" stroke="#e83d52" stroke-width="1"/>
  </g>
</svg>
