<svg id="Layer_1" data-name="Layer 1" xmlns="http://www.w3.org/2000/svg" viewBox="0 0 189.82 60.29"><defs><style>.cls-1,.cls-2{fill:none;}.cls-1{stroke:#000;stroke-width:0.05px;}</style></defs><title>direct debit logo new</title><g id="Group_270" data-name="Group 270"><path id="Path_86" data-name="Path 86" d="M69.66,29.3C69.66,11.5,59,3.66,46.7,1V0C68.89,1.18,85,14.57,85,30.06c0,17.6-19.13,30.23-42.66,30C19,60.29,0,46.9,0,30.06,0,12.65,16.67,0,45,0V21.64h-6.7c-14.35.58-30.8,6.7-30.8,15.12C7.48,45.94,23.17,57,42.11,57c15.11,0,27.54-11.1,27.54-27.73" transform="translate(0)"/><g id="Path_87" data-name="Path 87"><path d="M42.82,60.12h-1a55.93,55.93,0,0,1-19.14-3.29A41.21,41.21,0,0,1,7.92,47.74C2.74,42.6,0,36.49,0,30.06A24.58,24.58,0,0,1,3.05,18,28.09,28.09,0,0,1,11.87,8.5C19.89,2.94,31.34,0,45,0h0V21.67H38.28a62.41,62.41,0,0,0-10.86,1.42,52.64,52.64,0,0,0-9.91,3.19A24.35,24.35,0,0,0,10.29,31a8.22,8.22,0,0,0-2.78,5.81c0,4.51,3.81,9.58,10.2,13.56a43.6,43.6,0,0,0,11,4.81A48.51,48.51,0,0,0,42.11,57a27.65,27.65,0,0,0,19.42-7.62,26,26,0,0,0,5.93-8.75A29.52,29.52,0,0,0,69.63,29.3C69.63,10.06,57.16,3.3,46.7,1h0V0h0C57.32.55,67.08,4,74.17,9.64S85,22.47,85,30.06a24.82,24.82,0,0,1-7.82,17.83,40.46,40.46,0,0,1-14.94,9A58.75,58.75,0,0,1,42.82,60.12Zm-.52,0h.52a58.59,58.59,0,0,0,19.39-3.19,40.39,40.39,0,0,0,14.92-9,24.8,24.8,0,0,0,7.81-17.8c0-7.57-3.84-14.81-10.8-20.38S57.33.61,46.73.05V1c6.8,1.49,12.2,4.35,16.06,8.5C67.37,14.37,69.68,21,69.68,29.3A29.44,29.44,0,0,1,67.5,40.66a26,26,0,0,1-5.93,8.76,27.65,27.65,0,0,1-19.46,7.64A48.53,48.53,0,0,1,28.7,55.18a43.76,43.76,0,0,1-11-4.82c-6.4-4-10.22-9.08-10.22-13.6a8.31,8.31,0,0,1,2.8-5.85,24.09,24.09,0,0,1,7.23-4.67A51.79,51.79,0,0,1,27.41,23a62.52,62.52,0,0,1,10.87-1.42H45V.05C31.34.06,19.91,3,11.9,8.54A28.13,28.13,0,0,0,3.09,18a24.54,24.54,0,0,0-3,12C.05,36.47,2.79,42.57,8,47.7A41.16,41.16,0,0,0,22.7,56.78a55.82,55.82,0,0,0,19.12,3.29Z" transform="translate(0)"/></g><path id="Path_88" data-name="Path 88" d="M44.79,54.55c-8-.58-18.56-5.93-18.56-15.3,0-9.18,8.8-15.88,18.56-16.26V54.55" transform="translate(0)"/><path id="Path_89" data-name="Path 89" class="cls-1" d="M44.79,54.55c-8-.58-18.56-5.93-18.56-15.3,0-9.18,8.8-15.88,18.56-16.26Z" transform="translate(0)"/><g id="Path_90" data-name="Path 90"><path d="M171.24,12.65l-.38,2.49c-1.15-.38-11.67-2.87-11.87,5-.19,6.32,9.57,5.55,11.67,5l.19,2.68c-7.26,2.1-16.83-.2-17-7.66-.19-8.61,12.63-9.75,17.41-7.46" transform="translate(0)"/></g><g id="Path_91" data-name="Path 91"><path d="M165.52,28.54A14.62,14.62,0,0,1,157,26.13a7.48,7.48,0,0,1-3.2-6,7,7,0,0,1,.93-3.76,7.83,7.83,0,0,1,2.56-2.6c4-2.56,10.65-2.71,14-1.12h0v0l-.38,2.51h0c-1.2-.4-6.7-1.55-9.73.58a5.15,5.15,0,0,0-2.1,4.37,4.25,4.25,0,0,0,1.63,3.67,10,10,0,0,0,5.49,1.63,16.12,16.12,0,0,0,4.52-.35h0v0l.19,2.69h0A19.13,19.13,0,0,1,165.52,28.54Zm.18-16.89a16.09,16.09,0,0,0-8.38,2.14,7.93,7.93,0,0,0-2.55,2.58,7,7,0,0,0-.92,3.74,7.45,7.45,0,0,0,3.18,6c3.3,2.42,8.85,3.08,13.8,1.66l-.19-2.63a17.1,17.1,0,0,1-4.51.34,10.06,10.06,0,0,1-5.51-1.64A4.31,4.31,0,0,1,159,20.11a5.21,5.21,0,0,1,2.12-4.41c3-2.13,8.48-1,9.75-.59l.37-2.44A13.25,13.25,0,0,0,165.7,11.65Z" transform="translate(0)"/></g><g id="Path_92" data-name="Path 92"><path d="M178.7,28.15V14.57h-6.5V12.08h17.6v2.49h-6.32l-.18,13.58h-4.6" transform="translate(0)"/></g><g id="Path_93" data-name="Path 93"><path d="M183.32,28.17h-4.65V14.59h-6.5V12.05h17.65v2.54h-6.31Zm-4.6-.05h4.55l.19-13.58h6.31V12.1H172.22v2.44h6.5Z" transform="translate(0)"/></g><g id="Path_94" data-name="Path 94"><path d="M139.87,11.89h12.81v2.68h-8.6V28h-4.4l.19-16.07" transform="translate(0)"/></g><g id="Path_95" data-name="Path 95"><path d="M144.1,28h-4.45v0l.19-16.1h12.87v2.73H144.1Zm-4.4-.05h4.35V14.54h8.61V11.91H139.89Z" transform="translate(0)"/></g><g id="Rectangle_202" data-name="Rectangle 202"><rect x="143.69" y="18.58" width="8.42" height="2.68"/></g><g id="Rectangle_203" data-name="Rectangle 203"><path d="M152.13,21.29h-8.46V18.56h8.46Zm-8.41-.05h8.36V18.61h-8.36Z" transform="translate(0)"/></g><g id="Rectangle_204" data-name="Rectangle 204"><rect x="143.69" y="25.28" width="8.99" height="2.68"/></g><g id="Rectangle_205" data-name="Rectangle 205"><path d="M152.71,28h-9V25.25h9Zm-9-.05h8.94V25.3h-8.94Z" transform="translate(0)"/></g><g id="Rectangle_206" data-name="Rectangle 206"><rect x="110.98" y="11.89" width="4.78" height="16.07"/></g><g id="Rectangle_207" data-name="Rectangle 207"><path d="M115.79,28H111V11.86h4.84ZM111,27.93h4.74v-16H111Z" transform="translate(0)"/></g><g id="Rectangle_210" data-name="Rectangle 210"><rect x="88.79" y="32.17" width="4.78" height="16.07"/></g><g id="Rectangle_211" data-name="Rectangle 211"><path d="M93.6,48.26H88.76V32.14H93.6Zm-4.79,0h4.74v-16H88.81Z" transform="translate(0)"/></g><g id="Path_98" data-name="Path 98"><path d="M92,48.23l1-2.67,3.63-.19c4.21,0,6.7-2.3,6.7-5.36,0-3.63-3.44-5.55-5.93-5.55H93l-.57-2.3h5.16c5.93,0,10.9,3.06,10.9,8s-5,7.84-10.9,7.84l-5.54.19" transform="translate(0)"/></g><g id="Path_99" data-name="Path 99"><path d="M92,48.26l0,0,1-2.7h0l3.63-.19a7.53,7.53,0,0,0,4.91-1.53,4.78,4.78,0,0,0,1.77-3.8c0-3.6-3.43-5.52-5.91-5.52H93l-.58-2.35h5.19a13.53,13.53,0,0,1,7.69,2.15,7,7,0,0,1,3.24,5.91,6.79,6.79,0,0,1-3.24,5.8,13.89,13.89,0,0,1-7.69,2.07Zm1-2.68-.94,2.63,5.51-.2a13.78,13.78,0,0,0,7.66-2,6.75,6.75,0,0,0,3.22-5.76,7,7,0,0,0-3.22-5.87,13.5,13.5,0,0,0-7.66-2.14H92.46L93,34.44H97.4c2.5,0,6,1.93,6,5.57a4.93,4.93,0,0,1-1.78,3.84,7.61,7.61,0,0,1-5,1.54Z" transform="translate(0)"/></g><g id="Rectangle_212" data-name="Rectangle 212"><rect x="137.38" y="30.83" width="4.59" height="17.41"/></g><g id="Rectangle_213" data-name="Rectangle 213"><path d="M142,48.26h-4.65V30.8H142Zm-4.6,0h4.54V30.85H137.4Z" transform="translate(0)"/></g><g id="Rectangle_214" data-name="Rectangle 214"><rect x="163.21" y="36.56" width="4.59" height="11.86"/></g><g id="Rectangle_215" data-name="Rectangle 215"><path d="M167.82,48.45h-4.64V36.54h4.64Zm-4.59-.05h4.54V36.59h-4.54Z" transform="translate(0)"/></g><g id="Rectangle_216" data-name="Rectangle 216"><rect x="163.21" y="31.02" width="4.59" height="3.06"/></g><g id="Rectangle_217" data-name="Rectangle 217"><path d="M167.82,34.1h-4.64V31h4.64Zm-4.59-.05h4.54V31h-4.54Z" transform="translate(0)"/></g><g id="Path_100" data-name="Path 100"><path d="M178.89,45.37V33.5h4.78V44.79c0,1.53,2.68,1.92,4,1.53V49c-3.25.58-8.8.58-8.8-3.63" transform="translate(0)"/></g><g id="Path_101" data-name="Path 101"><path d="M184.72,49.29l-1.05,0A6.38,6.38,0,0,1,180,48a3.32,3.32,0,0,1-1.16-2.66V33.48h4.83V44.79a1.23,1.23,0,0,0,.55,1,4.48,4.48,0,0,0,3.43.49h0V49h0A18,18,0,0,1,184.72,49.29Zm-5.8-15.76V45.37A3.23,3.23,0,0,0,180.07,48a6.34,6.34,0,0,0,3.6,1.22,17.12,17.12,0,0,0,4-.23V46.36a4.57,4.57,0,0,1-3.45-.51,1.28,1.28,0,0,1-.57-1.06V33.53Z" transform="translate(0)"/></g><g id="Rectangle_218" data-name="Rectangle 218"><rect x="175.26" y="36.56" width="12.44" height="2.49"/></g><g id="Rectangle_219" data-name="Rectangle 219"><path d="M187.72,39.08H175.23V36.54h12.49Zm-12.44,0h12.39V36.59H175.28Z" transform="translate(0)"/></g><g id="Path_102" data-name="Path 102"><path d="M118.44,40.77h7.46c-.19-1.72-1.53-2.87-3.63-2.87s-3.83,1-3.83,2.87m0,2.3c.19,4.59,9.57,3.06,10.71,1.73v2.87c-1.91.95-4.21.95-6.88.95-4.79,0-8.8-2.48-8.8-6.5,0-3.63,3.63-6.31,8.8-6.31,4,0,8.41,1.91,8,7.46Z" transform="translate(0)"/></g><g id="Path_103" data-name="Path 103"><path d="M122.27,48.65a10.87,10.87,0,0,1-6.21-1.75,5.7,5.7,0,0,1-2.62-4.78,5.59,5.59,0,0,1,2.47-4.54,10.94,10.94,0,0,1,6.36-1.8,8.83,8.83,0,0,1,6.47,2.37,6.55,6.55,0,0,1,1.59,5.12v0h0l-11.83-.2a2.86,2.86,0,0,0,2.22,2.62,11.09,11.09,0,0,0,5,.25,6.91,6.91,0,0,0,3.43-1.19l.05-.05v3h0C127.25,48.65,124.94,48.65,122.27,48.65Zm0-12.82a10.91,10.91,0,0,0-6.33,1.79,5.53,5.53,0,0,0-2.45,4.5,5.65,5.65,0,0,0,2.6,4.74,10.85,10.85,0,0,0,6.18,1.74c2.65,0,5,0,6.86-1V44.86A7.31,7.31,0,0,1,125.71,46a11.22,11.22,0,0,1-5-.25,2.9,2.9,0,0,1-2.25-2.69v0h0l11.84.2a6.51,6.51,0,0,0-1.58-5.07A8.76,8.76,0,0,0,122.27,35.83Zm3.66,5h-7.51v0c0-1.75,1.51-2.89,3.85-2.89,2.06,0,3.46,1.11,3.66,2.89Zm-7.46,0h7.4c-.2-1.74-1.58-2.82-3.6-2.82a4.75,4.75,0,0,0-2.69.71A2.48,2.48,0,0,0,118.47,40.75Z" transform="translate(0)"/></g><g id="Path_104" data-name="Path 104"><path d="M124.56,18.77h3.06c1.34,0,3.06-.76,3.06-2.1,0-1.53-1.53-2.1-2.87-2.1h-3.25v4.21m11.1-2.67a3.87,3.87,0,0,1-3.72,4h-.1A5.91,5.91,0,0,1,133,21.27l3.64,6.5h-5L129.15,23a2.69,2.69,0,0,0-2.67-1.53h-1.73v6.31H120V11.7h8.61c2.29.19,7.08.76,7.08,4.4Z" transform="translate(0)"/></g><g id="Path_105" data-name="Path 105"><path d="M136.66,27.79h-5v0L129.13,23a2.71,2.71,0,0,0-2.42-1.53h-1.93v6.32H120V11.67h8.63c1.75.15,7.08.59,7.1,4.41v0a3.91,3.91,0,0,1-3.75,4h0A5.73,5.73,0,0,1,133,21.25Zm-5-.05h4.92L133,21.27a6.15,6.15,0,0,0-1.14-1.14l-.06,0h.17a3.85,3.85,0,0,0,3.71-4h0v0c0-3.79-5.31-4.23-7-4.38H120v16h4.73V21.42h2A2.76,2.76,0,0,1,129.18,23Zm-4-8.94h-3.08V14.55h3.27a3.81,3.81,0,0,1,1.95.48,1.84,1.84,0,0,1,1,1.64C130.71,18.06,128.92,18.8,127.62,18.8Zm-3-.05h3c1.28,0,3-.72,3-2.08a1.81,1.81,0,0,0-.92-1.6,3.83,3.83,0,0,0-1.93-.47h-3.22Z" transform="translate(0)"/></g><g id="Path_106" data-name="Path 106"><path d="M142.16,42.5a4,4,0,0,0,8,0,3.86,3.86,0,0,0-4-3.64,3.63,3.63,0,0,0-4,3.21c0,.14,0,.28,0,.43m-1.53-.2c0-4.39,2.87-6.31,7.08-6.12,3.83,0,7.08,2.1,7.08,6.32,0,4-3.25,6.5-7.08,6.5-4.4-.38-7.08-2.3-7.08-6.7Z" transform="translate(0)"/></g><g id="Path_107" data-name="Path 107"><path d="M147.71,49c-4.78-.41-7.1-2.61-7.1-6.72a6,6,0,0,1,1.66-4.53,6.9,6.9,0,0,1,4.89-1.63l.55,0a7.9,7.9,0,0,1,5,1.58,5.91,5.91,0,0,1,2.11,4.76,6.13,6.13,0,0,1-2.11,4.77A7.56,7.56,0,0,1,147.71,49Zm-.55-12.82a6.86,6.86,0,0,0-4.86,1.61,6,6,0,0,0-1.64,4.49c0,4.08,2.3,6.26,7.05,6.67a7.53,7.53,0,0,0,5-1.74,6.08,6.08,0,0,0,2.09-4.73,5.86,5.86,0,0,0-2.09-4.72,7.88,7.88,0,0,0-5-1.57Zm-1,10a4.06,4.06,0,0,1-4-3.66h0a2,2,0,0,1,0-.43,3.66,3.66,0,0,1,3.62-3.26,2.69,2.69,0,0,1,.4,0h.18a3.89,3.89,0,0,1,3.86,3.67,4.07,4.07,0,0,1-3.64,3.64A2.75,2.75,0,0,1,146.18,46.16Zm-4-3.66a4,4,0,0,0,4,3.61l.39,0a4,4,0,0,0,3.6-3.6,3.83,3.83,0,0,0-3.81-3.61h-.18a3.59,3.59,0,0,0-4,3.18A3,3,0,0,0,142.19,42.5Z" transform="translate(0)"/></g><g id="Path_108" data-name="Path 108"><path class="cls-2" d="M0,0V60.29H189.8V0" transform="translate(0)"/></g><g id="Rectangle_1486" data-name="Rectangle 1486"><rect x="88.79" y="32.17" width="4.78" height="16.07"/></g><g id="Path_404" data-name="Path 404"><path d="M92,48.23l1-2.67,3.63-.19c4.21,0,6.7-2.3,6.7-5.36,0-3.63-3.44-5.55-5.93-5.55H93l-.57-2.3h5.16c5.93,0,10.9,3.06,10.9,8s-5,7.84-10.9,7.84l-5.54.19" transform="translate(0)"/></g><g id="Rectangle_1487" data-name="Rectangle 1487"><rect x="88.79" y="12.17" width="4.78" height="16.07"/></g><g id="Path_405" data-name="Path 405"><path d="M92,28.23l1-2.67,3.63-.19c4.21,0,6.7-2.3,6.7-5.36,0-3.63-3.44-5.55-5.93-5.55H93l-.57-2.3h5.16c5.93,0,10.9,3.06,10.9,8s-5,7.84-10.9,7.84l-5.54.19" transform="translate(0)"/></g></g></svg>