<svg xmlns="http://www.w3.org/2000/svg" width="46.597" height="55.59" viewBox="0 0 46.597 55.59">
  <g id="Group_835" data-name="Group 835" transform="translate(0.25 0.25)">
    <path id="Path_595" data-name="Path 595" d="M23.443,1.289A31.676,31.676,0,0,0,13.982,0,31.673,31.673,0,0,0,4.523,1.289C.784,2.511,0,4.143,0,5.3v37.97a2.56,2.56,0,0,0,.241,1.078,4.454,4.454,0,0,0,1.916,1.9,12.06,12.06,0,0,0,2.368,1.027,31.633,31.633,0,0,0,9.459,1.29c.7,0,1.388-.017,2.065-.052V46.353q-1.013.056-2.065.054a29.444,29.444,0,0,1-8.789-1.183,9.65,9.65,0,0,1-2.012-.88c-.729-.441-1.025-.843-1.025-1.078V42.027c.214.126.449.251.7.372a13.691,13.691,0,0,0,1.663.655,31.673,31.673,0,0,0,9.459,1.289c.7,0,1.388-.017,2.065-.052V42.132q-1.013.056-2.065.056a30.542,30.542,0,0,1-8.3-1.032c-.165-.049-.326-.1-.485-.149a8.643,8.643,0,0,1-2.333-1.093c-.5-.355-.7-.67-.7-.866V37.808c.214.125.449.25.7.371a13.691,13.691,0,0,0,1.663.655q.337.109.692.212a32.959,32.959,0,0,0,8.767,1.078q1.048,0,2.065-.052V37.913q-1.013.056-2.065.056a30.479,30.479,0,0,1-8.3-1.032c-.165-.049-.329-.1-.487-.15a8.619,8.619,0,0,1-2.332-1.092c-.5-.355-.7-.669-.7-.866V33.589c.214.125.449.25.7.371a13.5,13.5,0,0,0,1.663.655c.224.073.456.145.693.213a32.956,32.956,0,0,0,8.766,1.078q1.046,0,2.065-.052V33.7q-1.013.056-2.065.054a30.525,30.525,0,0,1-8.3-1.032c-.165-.049-.329-.1-.487-.15a8.584,8.584,0,0,1-2.332-1.092c-.5-.355-.7-.67-.7-.866v-1.24q.321.189.7.374a13.883,13.883,0,0,0,1.663.655c.224.073.453.143.691.212a32.974,32.974,0,0,0,8.769,1.078q1.048,0,2.066-.052c0-.087.006-.175.013-.265a3.349,3.349,0,0,1,.949-1.958c-.976.079-1.992.119-3.027.119a30.542,30.542,0,0,1-8.3-1.032c-.165-.049-.326-.1-.485-.149a8.643,8.643,0,0,1-2.333-1.093c-.5-.355-.7-.67-.7-.866V25.154c.214.125.449.25.7.371a13.5,13.5,0,0,0,1.663.655q.337.109.692.212a32.959,32.959,0,0,0,8.767,1.078,32.961,32.961,0,0,0,8.769-1.078c.237-.068.467-.138.692-.212a14.039,14.039,0,0,0,1.663-.655c.257-.123.49-.246.7-.372v.864q1.046-.154,2.155-.258V5.3C27.966,4.143,27.182,2.511,23.443,1.289Zm2.368,20.884c0,.2-.208.511-.7.866a8.672,8.672,0,0,1-2.332,1.092c-.158.052-.322.1-.487.15a30.488,30.488,0,0,1-8.3,1.032,30.479,30.479,0,0,1-8.3-1.032c-.165-.049-.329-.1-.487-.15a8.619,8.619,0,0,1-2.332-1.092c-.5-.356-.7-.67-.7-.866V20.934c.214.126.449.251.7.372a13.578,13.578,0,0,0,1.663.655q.337.109.692.212a32.959,32.959,0,0,0,8.767,1.078,32.961,32.961,0,0,0,8.769-1.078c.237-.068.467-.138.692-.212a13.983,13.983,0,0,0,1.665-.655c.257-.121.49-.246.7-.372v1.239Zm0-4.219c0,.2-.208.511-.7.866a8.633,8.633,0,0,1-2.332,1.093c-.158.052-.32.1-.485.15A30.545,30.545,0,0,1,13.984,21.1a30.542,30.542,0,0,1-8.3-1.032c-.165-.049-.326-.1-.485-.15A8.58,8.58,0,0,1,2.862,18.82c-.5-.355-.7-.67-.7-.866V16.715c.214.126.449.251.7.372a13.5,13.5,0,0,0,1.663.655c.224.073.453.143.691.212a32.974,32.974,0,0,0,8.769,1.078,32.977,32.977,0,0,0,8.77-1.078c.236-.068.466-.138.691-.212a14.039,14.039,0,0,0,1.663-.655c.257-.123.49-.246.7-.374v1.24Zm0-4.219c0,.2-.208.511-.7.866a8.7,8.7,0,0,1-2.333,1.093c-.158.052-.32.1-.485.15a30.5,30.5,0,0,1-8.306,1.032,30.542,30.542,0,0,1-8.3-1.032c-.165-.049-.326-.1-.485-.15A8.643,8.643,0,0,1,2.861,14.6c-.5-.355-.7-.67-.7-.866V12.5c.214.125.449.25.7.371a13.5,13.5,0,0,0,1.663.655c.224.073.455.145.692.212a32.911,32.911,0,0,0,8.767,1.078,32.914,32.914,0,0,0,8.769-1.078q.356-.1.692-.212a14.039,14.039,0,0,0,1.663-.655c.257-.123.49-.246.7-.372v1.239Zm0-4.219c0,.2-.208.511-.7.866a8.672,8.672,0,0,1-2.332,1.092c-.158.052-.322.1-.487.15a30.488,30.488,0,0,1-8.3,1.032,30.479,30.479,0,0,1-8.3-1.032c-.165-.049-.329-.1-.487-.15a8.619,8.619,0,0,1-2.332-1.092c-.5-.355-.7-.67-.7-.866V8.277c.214.126.449.251.7.372a13.757,13.757,0,0,0,1.663.656q.337.109.692.212A32.959,32.959,0,0,0,13.984,10.6a32.961,32.961,0,0,0,8.769-1.078c.237-.068.467-.138.692-.212a13.78,13.78,0,0,0,1.665-.656c.257-.121.49-.246.7-.372V9.516Zm-.7-3.352a8.633,8.633,0,0,1-2.332,1.093c-.158.052-.32.1-.485.15a30.545,30.545,0,0,1-8.306,1.032,30.542,30.542,0,0,1-8.3-1.032c-.165-.049-.326-.1-.485-.15A8.58,8.58,0,0,1,2.862,6.163c-.5-.355-.7-.67-.7-.866,0-.388.81-1.231,3.037-1.96a29.484,29.484,0,0,1,8.789-1.182,29.486,29.486,0,0,1,8.791,1.182C25,4.066,25.811,4.908,25.811,5.3,25.811,5.494,25.6,5.808,25.106,6.163Z" fill="#e83d52" stroke="#e83d52" stroke-width="0.5"/>
    <path id="Path_596" data-name="Path 596" d="M184.693,243.806c-.113-1.13-1.034-2.621-4.51-3.757a35.369,35.369,0,0,0-18.921,0c-3.476,1.136-4.4,2.626-4.51,3.757-.008.087-.012.169-.012.25v16.877c0,.851.428,1.965,2.159,2.981a12.071,12.071,0,0,0,2.363,1.026,35.338,35.338,0,0,0,18.921,0,12.07,12.07,0,0,0,2.363-1.026c1.731-1.016,2.159-2.13,2.159-2.981V244.056A2.336,2.336,0,0,0,184.693,243.806Zm-2.147,17.169c-.056.4-.884,1.214-3.034,1.915a33.232,33.232,0,0,1-17.579,0c-2.151-.7-2.978-1.511-3.034-1.915a.265.265,0,0,1,0-.086v-1.195c.214.126.447.25.7.371a13.712,13.712,0,0,0,1.662.655,35.369,35.369,0,0,0,18.921,0,13.94,13.94,0,0,0,1.662-.655c.254-.121.487-.245.7-.371v1.195a.265.265,0,0,1,0,.086Zm0-4.219c-.027.2-.239.493-.7.824a8.654,8.654,0,0,1-2.334,1.093c-.158.052-.32.1-.485.15a33.935,33.935,0,0,1-16.61,0c-.164-.049-.326-.1-.485-.15a8.637,8.637,0,0,1-2.334-1.093c-.46-.331-.672-.625-.7-.824a.265.265,0,0,1,0-.086v-1.195c.214.126.447.25.7.372a14.093,14.093,0,0,0,1.662.655q.337.109.692.212a36.2,36.2,0,0,0,17.537,0c.237-.068.467-.138.692-.212a13.935,13.935,0,0,0,1.662-.655c.254-.121.487-.246.7-.372v1.195a.265.265,0,0,1,0,.086Zm0-4.219c-.027.2-.239.493-.7.824a8.63,8.63,0,0,1-2.333,1.092c-.158.052-.322.1-.487.15a33.917,33.917,0,0,1-16.6,0c-.167-.049-.329-.1-.487-.15a8.63,8.63,0,0,1-2.333-1.092c-.462-.331-.673-.625-.7-.824a.265.265,0,0,1,0-.086v-1.195c.214.126.447.25.7.37a13.9,13.9,0,0,0,1.662.655c.226.073.456.145.693.212a36.187,36.187,0,0,0,17.535,0q.356-.1.693-.212a13.94,13.94,0,0,0,1.662-.655c.255-.12.487-.244.7-.37v1.195a.277.277,0,0,1,0,.043A.266.266,0,0,1,182.546,252.538Zm0-4.219c-.027.2-.239.493-.7.824a8.63,8.63,0,0,1-2.333,1.092c-.158.052-.322.1-.487.15a33.917,33.917,0,0,1-16.6,0c-.167-.049-.329-.1-.487-.15a8.6,8.6,0,0,1-2.333-1.092c-.462-.331-.673-.625-.7-.824a.265.265,0,0,1,0-.086v-1.195c.214.126.447.25.7.371a13.706,13.706,0,0,0,1.662.655q.337.109.691.212a36.207,36.207,0,0,0,17.54,0c.237-.068.466-.138.691-.212a13.937,13.937,0,0,0,1.662-.655c.255-.121.487-.245.7-.371v1.195a.265.265,0,0,1,0,.086Zm0-4.219c-.027.2-.239.493-.7.824a8.654,8.654,0,0,1-2.334,1.093c-.158.052-.32.1-.485.149a33.935,33.935,0,0,1-16.61,0c-.164-.049-.326-.1-.485-.149a8.637,8.637,0,0,1-2.334-1.093c-.46-.331-.672-.625-.7-.824a.265.265,0,0,1,0-.086c.056-.4.884-1.212,3.034-1.916a33.263,33.263,0,0,1,17.579,0c2.151.7,2.978,1.511,3.034,1.916a.278.278,0,0,1,0,.043A.289.289,0,0,1,182.546,244.1Z" transform="translate(-138.608 -211.14)" fill="#e83d52" stroke="#e83d52" stroke-width="0.5"/>
  </g>
</svg>
