<svg xmlns="http://www.w3.org/2000/svg" width="127.268" height="79.466" viewBox="0 0 127.268 79.466">
  <g id="Group_795" data-name="Group 795" transform="translate(-1515 -1359.534)">
    <g id="Group_828" data-name="Group 828" transform="translate(1515 1359.534)">
      <path id="Path_538" data-name="Path 538" d="M389.619,32.024a7.6,7.6,0,1,1-7.6-7.6A7.6,7.6,0,0,1,389.619,32.024Z" transform="translate(-274.51 -17.904)" fill="#03abf2" opacity="0.01"/>
      <rect id="Rectangle_1042" data-name="Rectangle 1042" width="5.336" height="3.735" transform="translate(98.494 56.104)" fill="#03abf2" opacity="0.25"/>
      <path id="Path_540" data-name="Path 540" d="M43.611,194.025a9.605,9.605,0,1,1-9.605-9.605A9.606,9.606,0,0,1,43.611,194.025Z" transform="translate(-17.89 -135.213)" fill="#03abf2" opacity="0.01"/>
      <path id="Path_541" data-name="Path 541" d="M212.629,107.144A20.254,20.254,0,1,1,192.374,86.89,20.256,20.256,0,0,1,212.629,107.144Z" transform="translate(-126.195 -63.706)" fill="#f1f7f8" opacity="0.85"/>
      <path id="Path_542" data-name="Path 542" d="M138.634,258.909a1.894,1.894,0,1,1,1.894-1.894A1.9,1.9,0,0,1,138.634,258.909Zm0-3.14a1.246,1.246,0,1,0,1.246,1.246A1.246,1.246,0,0,0,138.634,255.768Z" transform="translate(-100.255 -187.049)" fill="#1c428c"/>
      <g id="Group_820" data-name="Group 820" transform="translate(109.66 30.335)">
        <path id="Path_543" data-name="Path 543" d="M411.315,121.306a.326.326,0,0,1,0-.651l3.719-.005h0a.326.326,0,0,1,0,.651l-3.719.005Z" transform="translate(-410.99 -118.793)" fill="#1c428c"/>
        <path id="Path_544" data-name="Path 544" d="M418.281,118.061a.325.325,0,0,1-.326-.326l-.005-3.719a.325.325,0,0,1,.323-.326h0a.327.327,0,0,1,.326.326l.005,3.719a.321.321,0,0,1-.323.326Z" transform="translate(-416.093 -113.69)" fill="#1c428c"/>
      </g>
      <g id="Group_821" data-name="Group 821" transform="translate(0 43.275)">
        <path id="Path_545" data-name="Path 545" d="M.326,169.814a.324.324,0,1,1,0-.648l3.719-.005h0a.326.326,0,1,1,0,.651l-3.719,0Z" transform="translate(0 -167.3)" fill="#1c428c"/>
        <path id="Path_546" data-name="Path 546" d="M7.291,166.561a.325.325,0,0,1-.326-.326l-.005-3.719a.325.325,0,0,1,.323-.326h0a.325.325,0,0,1,.326.326l.005,3.719a.325.325,0,0,1-.323.326Z" transform="translate(-5.103 -162.19)" fill="#1c428c"/>
      </g>
      <g id="Group_822" data-name="Group 822" transform="translate(80.075 2.839)">
        <path id="Path_547" data-name="Path 547" d="M300.436,17.716a.326.326,0,1,1,0-.651l3.437-.005h0a.326.326,0,0,1,0,.651l-3.439.005Z" transform="translate(-300.11 -15.347)" fill="#1c428c"/>
        <path id="Path_548" data-name="Path 548" d="M306.871,14.728a.325.325,0,0,1-.326-.326l-.005-3.437a.325.325,0,0,1,.323-.326h0a.325.325,0,0,1,.326.326l.005,3.437a.326.326,0,0,1-.323.326Z" transform="translate(-304.824 -10.64)" fill="#1c428c"/>
      </g>
      <path id="Path_549" data-name="Path 549" d="M145.594,5.689,142.75,2.844,145.594,0l2.844,2.844Zm-1.91-2.844L145.6,4.757l1.913-1.913L145.6.931Z" transform="translate(-104.662)" fill="#1c428c"/>
      <path id="Path_550" data-name="Path 550" d="M441.834,178.475H439.3a.432.432,0,0,1,0-.865h2.532a.432.432,0,0,1,0,.865Z" transform="translate(-321.771 -130.22)" fill="#1c428c"/>
      <g id="Group_824" data-name="Group 824" transform="translate(99.369 3.357)">
        <g id="Group_823" data-name="Group 823" transform="translate(0 2.575)">
          <path id="Path_551" data-name="Path 551" d="M380.713,38.815a8.293,8.293,0,1,1,8.293-8.293A8.3,8.3,0,0,1,380.713,38.815Zm0-15.721a7.426,7.426,0,1,0,7.426,7.426A7.434,7.434,0,0,0,380.713,23.094Z" transform="translate(-372.42 -22.23)" fill="#03abf2"/>
        </g>
        <path id="Path_552" data-name="Path 552" d="M391.241,43.959l-3.671-2.97a.433.433,0,1,1,.544-.672l2.988,2.417,4.032-5.115a.433.433,0,1,1,.68.536Z" transform="translate(-383.41 -30.818)" fill="#03abf2"/>
        <path id="Path_553" data-name="Path 553" d="M399.281,13.444h-3.389a.432.432,0,0,1,0-.864h3.389a.432.432,0,1,1,0,.864Z" transform="translate(-389.312 -12.58)" fill="#ff5963"/>
      </g>
      <path id="Path_554" data-name="Path 554" d="M321.013,84.137h-1.8a.432.432,0,1,1,0-.864h1.8a1.006,1.006,0,0,0,.734-.35,1.641,1.641,0,0,0,.2-.878V65.772a.432.432,0,0,1,.865,0v16C322.809,82.835,322.542,84.137,321.013,84.137Z" transform="translate(-233.723 -47.906)" fill="#1c428c"/>
      <path id="Path_555" data-name="Path 555" d="M328.766,39.284h-6.043a.432.432,0,1,1,0-.864h6.043a.432.432,0,1,1,0,.864Z" transform="translate(-236.297 -28.169)" fill="#1c428c"/>
      <path id="Path_556" data-name="Path 556" d="M331.072,56.881a.432.432,0,0,1-.432-.432V53.18a3.049,3.049,0,0,1,2.668-2.86h5.571a.432.432,0,1,1,0,.864h-5.571a2.229,2.229,0,0,0-1.8,2v3.269A.438.438,0,0,1,331.072,56.881Z" transform="translate(-242.419 -36.894)" fill="#1c428c"/>
      <path id="Path_557" data-name="Path 557" d="M227.033,211.718a.435.435,0,0,1-.379-.221l-6.094-10.833a3.193,3.193,0,1,1,5.627-3.018.434.434,0,1,1-.766.408,2.327,2.327,0,0,0-4.1,2.193l6.091,10.822a.433.433,0,0,1-.165.59A.407.407,0,0,1,227.033,211.718Z" transform="translate(-161.431 -143.674)" fill="#1c428c"/>
      <g id="Group_825" data-name="Group 825" transform="translate(64.039 37.728)">
        <path id="Path_558" data-name="Path 558" d="M250.963,177.378a10.881,10.881,0,0,1-10.937-11.014c0-.726-.016-21.722-.016-21.935a3.019,3.019,0,0,1,6.038-.019l.019,5.646a3.018,3.018,0,0,1,5.088,1.366,3,3,0,0,1,2.239-1,3.034,3.034,0,0,1,3.026,2.842,3.019,3.019,0,0,1,5.184,2.095l.035,10.993a14.023,14.023,0,0,1-.152,1.718l-.008.059A10.181,10.181,0,0,1,251,177.375h-.035Zm-7.933-35.111a2.157,2.157,0,0,0-2.153,2.161c0,.213.013,21.207.016,21.933a10.027,10.027,0,0,0,10.072,10.152H251a9.238,9.238,0,0,0,9.621-8.488l.008-.061a13.869,13.869,0,0,0,.147-1.612l-.035-10.993a2.153,2.153,0,1,0-4.306.013h0a.432.432,0,0,1-.432.432h0a.432.432,0,0,1-.432-.432h0l-.005-1.94a2.155,2.155,0,0,0-4.309-.075c.005,1.694.008,2.129.008,2.249v.051a.439.439,0,0,1-.446.406.433.433,0,0,1-.419-.432l-.008-2.183c0-.043,0-.083,0-.125l-.005-1.169a2.155,2.155,0,0,0-4.309.013h0a.434.434,0,0,1-.432.435h0a.432.432,0,0,1-.432-.432l-.024-7.759A2.167,2.167,0,0,0,243.03,142.267Z" transform="translate(-240.01 -141.4)" fill="#1c428c"/>
        <path id="Path_559" data-name="Path 559" d="M259.936,185.7a.432.432,0,0,1-.432-.432l-.024-7.113a.434.434,0,0,1,.432-.435h0a.432.432,0,0,1,.432.432l.024,7.113a.437.437,0,0,1-.435.435Z" transform="translate(-254.285 -168.029)" fill="#1c428c"/>
        <path id="Path_560" data-name="Path 560" d="M279.334,185.651a.432.432,0,0,1-.432-.432l-.021-7.113a.434.434,0,0,1,.432-.435h0a.432.432,0,0,1,.432.432l.021,7.113a.44.44,0,0,1-.435.435Z" transform="translate(-268.509 -167.992)" fill="#1c428c"/>
        <path id="Path_561" data-name="Path 561" d="M298.731,189.136a.432.432,0,0,1-.432-.432l-.019-5.819a.434.434,0,0,1,.432-.435h0a.432.432,0,0,1,.432.432l.019,5.819a.437.437,0,0,1-.435.435Z" transform="translate(-282.732 -171.497)" fill="#1c428c"/>
      </g>
      <path id="Path_562" data-name="Path 562" d="M223.35,133.008a.439.439,0,0,1-.36-.189,7.844,7.844,0,1,1,13.322-.494.432.432,0,1,1-.75-.43,6.9,6.9,0,0,0,.907-3.1,6.978,6.978,0,1,0-12.757,3.543.433.433,0,0,1-.117.6A.467.467,0,0,1,223.35,133.008Z" transform="translate(-162.51 -88.415)" fill="#ff5963"/>
      <path id="Path_563" data-name="Path 563" d="M32.432,201.83a10,10,0,1,1,10-10A10,10,0,0,1,32.432,201.83Zm0-19.123a9.128,9.128,0,1,0,9.128,9.128A9.139,9.139,0,0,0,32.432,182.707Z" transform="translate(-16.453 -133.322)" fill="#03abf2"/>
      <path id="Path_568" data-name="Path 568" d="M128.941,86.249a.432.432,0,0,1-.432-.432V76.686c0-.9-.12-.982-.739-.982h-3.047a.432.432,0,0,1,0-.864h3.047c1.481,0,1.6.955,1.6,1.849v9.133A.429.429,0,0,1,128.941,86.249Z" transform="translate(-91.127 -54.871)" fill="#1c428c"/>
      <path id="Path_569" data-name="Path 569" d="M108.443,183.341h-2.82a.432.432,0,1,1,0-.864h2.82c1.438,0,1.812-.379,1.812-1.846V170.082a.432.432,0,0,1,.865,0V180.63C111.119,182.556,110.345,183.341,108.443,183.341Z" transform="translate(-77.123 -124.384)" fill="#1c428c"/>
      <path id="Path_570" data-name="Path 570" d="M124.6,161.872a.432.432,0,0,1-.432-.432v-.667a3.089,3.089,0,0,1,2.855-3.143h6.148a.432.432,0,1,1,0,.864h-6.148a2.231,2.231,0,0,0-1.988,2.276v.667A.437.437,0,0,1,124.6,161.872Z" transform="translate(-91.039 -115.571)" fill="#1c428c"/>
      <path id="Path_571" data-name="Path 571" d="M324.239,160.611a.432.432,0,0,1-.432-.432v-4.747c0-1.39-.478-3.047-2.746-3.047H297.872a.432.432,0,1,1,0-.864h23.189c2.3,0,3.613,1.425,3.613,3.912v4.747A.436.436,0,0,1,324.239,160.611Z" transform="translate(-218.077 -111.092)" fill="#1c428c"/>
      <path id="Path_572" data-name="Path 572" d="M156.355,120.921H141.746c-1.646,0-1.646-1.358-1.646-1.937v-4.192a.432.432,0,1,1,.864,0v4.192c0,.979.213,1.07.779,1.07h14.608a.434.434,0,0,1,0,.867Z" transform="translate(-102.719 -83.847)" fill="#1c428c"/>
      <path id="Path_573" data-name="Path 573" d="M184.493,179.724h-1.179a6.768,6.768,0,0,1-6.27-6.083c0-.021-.005-.088,0-22.13v-.248a.432.432,0,1,1,.864,0v.248c0,5.115-.005,21.826,0,22.1a5.847,5.847,0,0,0,5.406,5.251h1.179a.434.434,0,0,1,0,.867Z" transform="translate(-129.803 -110.586)" fill="#1c428c"/>
      <path id="Path_574" data-name="Path 574" d="M300.232,119.337a.432.432,0,0,1-.432-.432v-2.532a.432.432,0,0,1,.865,0V118.9A.432.432,0,0,1,300.232,119.337Z" transform="translate(-219.808 -85.005)" fill="#1c428c"/>
      <path id="Path_575" data-name="Path 575" d="M223.016,68.744H195.2a.432.432,0,1,1,0-.864h27.813a.432.432,0,0,1,0,.864Z" transform="translate(-142.802 -49.768)" fill="#1c428c"/>
      <path id="Path_576" data-name="Path 576" d="M210.968,59.418a.432.432,0,0,1-.432-.432V42.531c0-2.577-1.337-4-3.767-4H182.631c-2.4,0-3.717,1.419-3.717,4V58.986a.432.432,0,1,1-.864,0V42.531c0-3.044,1.713-4.861,4.584-4.861H206.77c2.9,0,4.632,1.817,4.632,4.861V58.986A.434.434,0,0,1,210.968,59.418Z" transform="translate(-130.543 -27.619)" fill="#1c428c"/>
      <path id="Path_577" data-name="Path 577" d="M180.737,68.744h-1.465a.432.432,0,1,1,0-.864h1.465a.432.432,0,0,1,0,.864Z" transform="translate(-131.122 -49.768)" fill="#1c428c"/>
      <path id="Path_578" data-name="Path 578" d="M187.765,225.124h-9.283a.432.432,0,1,1,0-.864h9.283a.432.432,0,1,1,0,.864Z" transform="translate(-130.543 -164.423)" fill="#1c428c"/>
      <path id="Path_579" data-name="Path 579" d="M234.671,54.144h-4.429a.432.432,0,1,1,0-.864h4.429a.432.432,0,1,1,0,.864Z" transform="translate(-168.492 -39.064)" fill="#1c428c"/>
      <path id="Path_584" data-name="Path 584" d="M376.037,210.483H356.954a2.607,2.607,0,0,1-2.6-2.668V196.883a2.606,2.606,0,0,1,2.6-2.663h19.083a2.6,2.6,0,0,1,2.593,2.663v10.932A2.6,2.6,0,0,1,376.037,210.483Zm-19.08-15.4a1.75,1.75,0,0,0-1.74,1.8v10.932a1.753,1.753,0,0,0,1.74,1.8H376.04a1.747,1.747,0,0,0,1.726-1.8V196.88a1.744,1.744,0,0,0-1.726-1.8Z" transform="translate(-259.803 -142.398)" fill="#03abf2"/>
      <path id="Path_585" data-name="Path 585" d="M414.585,228.663H395.51V227.8h19.075a1.764,1.764,0,0,0,1.8-1.766V215.1a1.817,1.817,0,0,0-1.8-1.833h-4.1V212.4h4.1a2.685,2.685,0,0,1,2.663,2.7v10.932A2.652,2.652,0,0,1,414.585,228.663Z" transform="translate(-289.98 -155.728)" fill="#1c428c"/>
      <g id="Group_827" data-name="Group 827" transform="translate(98.358 63.084)">
        <path id="Path_586" data-name="Path 586" d="M370.362,237.294h-1.3a.432.432,0,0,1,0-.864h1.3a.432.432,0,1,1,0,.864Z" transform="translate(-368.63 -236.43)" fill="#ff5963"/>
        <path id="Path_587" data-name="Path 587" d="M392.471,237.294h-2.593a.432.432,0,1,1,0-.864h2.593a.432.432,0,1,1,0,.864Zm-5.406,0h-2.593a.432.432,0,1,1,0-.864h2.593a.432.432,0,1,1,0,.864Z" transform="translate(-379.928 -236.43)" fill="#ff5963"/>
        <path id="Path_588" data-name="Path 588" d="M426.282,237.294h-1.3a.432.432,0,1,1,0-.864h1.3a.432.432,0,1,1,0,.864Z" transform="translate(-409.629 -236.43)" fill="#ff5963"/>
      </g>
      <path id="Path_589" data-name="Path 589" d="M460.938,230.654h-3.375a.432.432,0,1,1,0-.864h3.375a.434.434,0,0,1,.432.432A.429.429,0,0,1,460.938,230.654Z" transform="translate(-335.159 -168.478)" fill="#1c428c"/>
      <path id="Path_590" data-name="Path 590" d="M372.811,212.525h-3.885A1.128,1.128,0,0,1,367.8,211.4v-2.617a1.128,1.128,0,0,1,1.126-1.129h3.885a1.131,1.131,0,0,1,1.129,1.129V211.4A1.132,1.132,0,0,1,372.811,212.525Zm-3.885-4.008a.262.262,0,0,0-.262.261V211.4a.262.262,0,0,0,.262.261h3.885a.262.262,0,0,0,.261-.261v-2.617a.262.262,0,0,0-.261-.261Z" transform="translate(-269.664 -152.245)" fill="#03abf2"/>
    </g>
    <text id="_" data-name="£" transform="translate(1527 1412)" fill="#e83d52" font-size="13" font-family="Helvetica"><tspan x="0" y="10">£</tspan></text>
  </g>
</svg>
