<svg id="Layer_1" data-name="Layer 1" xmlns="http://www.w3.org/2000/svg" viewBox="0 0 351 382"><defs><style>.cls-1{fill:#fff;}.cls-2{fill:#e83d52;}.cls-3{fill:#f8f8f8;}</style></defs><title>Receipt</title><g id="Group_498" data-name="Group 498"><g id="Group_515" data-name="Group 515"><path id="Subtraction_4-2" data-name="Subtraction 4-2" class="cls-1" d="M360,388H9V161.16h.46A10.35,10.35,0,0,0,17,157.91a11.49,11.49,0,0,0,0-15.74,10.3,10.3,0,0,0-7.54-3.27H9V42.79H149.77a38,38,0,0,1,2.77-14.32,36.55,36.55,0,0,1,7.54-11.69,35,35,0,0,1,11.18-7.89,33.94,33.94,0,0,1,27.4,0,34.93,34.93,0,0,1,11.19,7.89,36.55,36.55,0,0,1,7.54,11.69,38,38,0,0,1,2.77,14.32H360v95a10.42,10.42,0,0,0-7.22,3.41,11.49,11.49,0,0,0,0,15.42,10.39,10.39,0,0,0,7.22,3.42Z" transform="translate(-9 -6)"/><circle id="Ellipse_2" data-name="Ellipse 2" class="cls-2" cx="175.95" cy="35.99" r="31"/><path id="Path_34" data-name="Path 34" class="cls-3" d="M179.39,53.19,168.9,42.94a1.42,1.42,0,0,1-.05-2l.05,0,2.12-2a1.53,1.53,0,0,1,2.12,0L180.46,46l16.31-16a1.55,1.55,0,0,1,2.12,0L201,32.1a1.41,1.41,0,0,1,.05,2l-.05,0L181.51,53.2A1.55,1.55,0,0,1,179.39,53.19Z" transform="translate(-9 -6)"/></g></g></svg>