<svg xmlns="http://www.w3.org/2000/svg" width="61.784" height="54.592" viewBox="0 0 61.784 54.592">
  <g id="Group_844" data-name="Group 844" transform="translate(0.5 0.5)">
    <g id="Group_836" data-name="Group 836" transform="translate(0 13.475)">
      <path id="Path_597" data-name="Path 597" d="M56.613,705.157H4.169A4.174,4.174,0,0,1,0,700.987V669.209a4.173,4.173,0,0,1,4.169-4.169H23.2a1.216,1.216,0,1,1,0,2.431H4.169a1.74,1.74,0,0,0-1.738,1.738v31.777a1.741,1.741,0,0,0,1.738,1.739H56.613a1.741,1.741,0,0,0,1.739-1.739V669.209a1.741,1.741,0,0,0-1.739-1.738H37.584a1.216,1.216,0,1,1,0-2.431H56.613a4.174,4.174,0,0,1,4.171,4.169v31.777A4.175,4.175,0,0,1,56.613,705.157Z" transform="translate(0 -665.04)" fill="#e83d52" stroke="#e83d52" stroke-width="1"/>
    </g>
    <g id="Group_837" data-name="Group 837" transform="translate(21.983)">
      <path id="Path_598" data-name="Path 598" d="M1100.581,22.085H1086.2a1.215,1.215,0,0,1-1.216-1.216V1.216A1.215,1.215,0,0,1,1086.2,0h14.385a1.215,1.215,0,0,1,1.216,1.216V20.87A1.215,1.215,0,0,1,1100.581,22.085Zm-13.169-2.431h11.954V2.431h-11.954Z" transform="translate(-1084.98)" fill="#e83d52" stroke="#e83d52" stroke-width="1"/>
    </g>
    <g id="Group_838" data-name="Group 838" transform="translate(18.501 19.654)">
      <path id="Path_599" data-name="Path 599" d="M935.686,972.451H914.336a1.216,1.216,0,0,1,0-2.431h21.35a1.216,1.216,0,0,1,0,2.431Z" transform="translate(-913.12 -970.02)" fill="#e83d52" stroke="#e83d52" stroke-width="1"/>
    </g>
    <g id="Group_839" data-name="Group 839" transform="translate(8.833 28.087)">
      <path id="Path_600" data-name="Path 600" d="M441.049,1396.5a5.119,5.119,0,1,1,5.12-5.119A5.124,5.124,0,0,1,441.049,1396.5Zm0-7.807a2.688,2.688,0,1,0,2.689,2.688A2.692,2.692,0,0,0,441.049,1388.691Z" transform="translate(-435.93 -1386.26)" fill="#e83d52" stroke="#e83d52" stroke-width="1"/>
    </g>
    <g id="Group_840" data-name="Group 840" transform="translate(5.905 35.895)">
      <path id="Path_601" data-name="Path 601" d="M306.329,1780.844H292.666a1.215,1.215,0,0,1-1.216-1.216,8.047,8.047,0,1,1,16.095,0A1.215,1.215,0,0,1,306.329,1780.844Zm-12.315-2.431H304.98a5.616,5.616,0,0,0-10.966,0Z" transform="translate(-291.45 -1771.58)" fill="#e83d52" stroke="#e83d52" stroke-width="1"/>
    </g>
    <g id="Group_841" data-name="Group 841" transform="translate(27.981 27.353)">
      <path id="Path_602" data-name="Path 602" d="M1406.681,1352.431h-24.466a1.216,1.216,0,1,1,0-2.431h24.466a1.216,1.216,0,1,1,0,2.431Z" transform="translate(-1381 -1350)" fill="#e83d52" stroke="#e83d52" stroke-width="1"/>
    </g>
    <g id="Group_842" data-name="Group 842" transform="translate(27.981 35.407)">
      <path id="Path_603" data-name="Path 603" d="M1406.681,1749.931h-24.466a1.216,1.216,0,1,1,0-2.431h24.466a1.216,1.216,0,1,1,0,2.431Z" transform="translate(-1381 -1747.5)" fill="#e83d52" stroke="#e83d52" stroke-width="1"/>
    </g>
    <g id="Group_843" data-name="Group 843" transform="translate(27.981 43.461)">
      <path id="Path_604" data-name="Path 604" d="M1406.681,2147.431h-24.466a1.216,1.216,0,1,1,0-2.431h24.466a1.216,1.216,0,1,1,0,2.431Z" transform="translate(-1381 -2145)" fill="#e83d52" stroke="#e83d52" stroke-width="1"/>
    </g>
  </g>
</svg>
