<svg id="Group_794" data-name="Group 794" xmlns="http://www.w3.org/2000/svg" xmlns:xlink="http://www.w3.org/1999/xlink" width="107.746" height="83.953" viewBox="0 0 107.746 83.953">
  <defs>
    <linearGradient id="linear-gradient" x1="0.55" y1="1.053" x2="0.472" y2="0.172" gradientUnits="objectBoundingBox">
      <stop offset="0" stop-color="#fff"/>
      <stop offset="0.843" stop-color="#ff5963"/>
    </linearGradient>
  </defs>
  <path id="Path_508" data-name="Path 508" d="M159.37,96.9A27.185,27.185,0,1,1,132.185,69.72,27.185,27.185,0,0,1,159.37,96.9Z" transform="translate(-73.791 -48.997)" fill="#f1f7f8" opacity="0.85"/>
  <path id="Path_509" data-name="Path 509" d="M137.233,134.161s2.494-6.625,13.361-5.543c11.4,1.135,12.484,3.677,12.484,3.677l.051,21.71s-3.017,4.521-12.826,4.051c-8.917-.425-13.072-5.115-13.072-5.115V134.161Z" transform="translate(-96.441 -90.305)" opacity="0.5" fill="url(#linear-gradient)"/>
  <path id="Path_510" data-name="Path 510" d="M212.387,6.7a3.35,3.35,0,1,1,3.35-3.35A3.353,3.353,0,0,1,212.387,6.7Zm0-5.638a2.292,2.292,0,1,0,2.292,2.292A2.294,2.294,0,0,0,212.387,1.061Z" transform="translate(-146.907)" fill="#1c428c"/>
  <path id="Path_511" data-name="Path 511" d="M70.529,139.835a.53.53,0,0,1-.529-.529v-8.477a.529.529,0,1,1,1.058,0v8.477A.53.53,0,0,1,70.529,139.835Z" transform="translate(-49.194 -91.571)" fill="#03abf2"/>
  <g id="Group_807" data-name="Group 807" transform="translate(24.605 2.324)">
    <path id="Path_512" data-name="Path 512" d="M88.779,17.785a.53.53,0,0,1-.529-.529V9.569a.529.529,0,1,1,1.058,0v7.683A.531.531,0,0,1,88.779,17.785Z" transform="translate(-86.624 -8.677)" fill="#3fa9f5"/>
    <g id="Group_806" data-name="Group 806">
      <path id="Path_513" data-name="Path 513" d="M82.78,10.15l.386.36L84.947,8.6l1.777,1.911.389-.36L84.947,7.82Z" transform="translate(-82.78 -7.82)" fill="#3fa9f5"/>
    </g>
  </g>
  <g id="Group_808" data-name="Group 808" transform="translate(26.968 43.22)">
    <path id="Path_514" data-name="Path 514" d="M91.128,153.337a.4.4,0,1,1,0-.794l4.45,0h0a.393.393,0,0,1,.4.392.4.4,0,0,1-.4.4l-4.45.006Z" transform="translate(-90.73 -150.421)" fill="#1c428c"/>
    <path id="Path_515" data-name="Path 515" d="M98.6,150.445a.358.358,0,0,1-.4-.348l-.006-4.369c0-.22.178-.318.4-.318h0a.354.354,0,0,1,.4.342L99,150.124c0,.22-.178.321-.4.321Z" transform="translate(-95.98 -145.41)" fill="#1c428c"/>
  </g>
  <g id="Group_809" data-name="Group 809" transform="translate(95.75 70.777)">
    <path id="Path_516" data-name="Path 516" d="M322.538,246.308a.459.459,0,0,1-.4-.464c0-.22.178-.493.4-.493l4.45-.1h0a.456.456,0,0,1,.4.461c0,.22-.178.5-.4.5l-4.447.1Z" transform="translate(-322.14 -243.131)" fill="#03abf2"/>
    <path id="Path_517" data-name="Path 517" d="M330.014,243.42a.411.411,0,0,1-.4-.413l-.006-4.467a.417.417,0,0,1,.4-.419h0a.409.409,0,0,1,.4.41l.006,4.47a.419.419,0,0,1-.4.419Z" transform="translate(-327.39 -238.12)" fill="#03abf2"/>
  </g>
  <g id="Group_811" data-name="Group 811" transform="translate(9.345 12.219)">
    <path id="Path_518" data-name="Path 518" d="M42.833,74.344a.53.53,0,0,1-.529-.529V54.881l-3.974-3.2V42.549a.529.529,0,0,1,1.058,0v8.623l3.974,3.2V73.812A.527.527,0,0,1,42.833,74.344Z" transform="translate(-36.282 -41.75)" fill="#3fa9f5"/>
    <g id="Group_810" data-name="Group 810">
      <path id="Path_519" data-name="Path 519" d="M31.44,43.907l.467.434,2.134-2.3,2.134,2.3.467-.434-2.6-2.8Z" transform="translate(-31.44 -41.11)" fill="#3fa9f5"/>
    </g>
  </g>
  <g id="Group_813" data-name="Group 813" transform="translate(100.645 24.84)">
    <path id="Path_520" data-name="Path 520" d="M339.139,105.474a.53.53,0,0,1-.529-.529V97.213l3.974-3.2V85.339a.529.529,0,0,1,1.058,0v9.178l-3.974,3.2v7.226A.528.528,0,0,1,339.139,105.474Z" transform="translate(-338.61 -84.441)" fill="#03abf2"/>
    <g id="Group_812" data-name="Group 812" transform="translate(1.902)">
      <path id="Path_521" data-name="Path 521" d="M345.01,86.367l.464.431,2.134-2.295,2.137,2.295.464-.431-2.6-2.8Z" transform="translate(-345.01 -83.57)" fill="#03abf2"/>
    </g>
  </g>
  <g id="Group_815" data-name="Group 815" transform="translate(85.617 51.671)">
    <path id="Path_522" data-name="Path 522" d="M294.119,190.094a.53.53,0,0,1-.529-.529V175.259a.529.529,0,1,1,1.058,0v14.306A.53.53,0,0,1,294.119,190.094Z" transform="translate(-291.943 -174.465)" fill="#3fa9f5"/>
    <g id="Group_814" data-name="Group 814">
      <path id="Path_523" data-name="Path 523" d="M288.05,176.17l.389.363,1.777-1.914,1.78,1.914.386-.363-2.167-2.33Z" transform="translate(-288.05 -173.84)" fill="#3fa9f5"/>
    </g>
  </g>
  <path id="Path_524" data-name="Path 524" d="M338.56,197.769l-2.83-2.83,2.83-2.83,2.83,2.83Zm-1.706-2.83,1.706,1.706,1.706-1.706-1.706-1.706Z" transform="translate(-235.941 -135.009)" fill="#1c428c"/>
  <path id="Path_525" data-name="Path 525" d="M3.139,149.535,0,146.4l3.139-3.139L6.278,146.4ZM1.124,146.4l2.015,2.015L5.154,146.4l-2.015-2.015Z" transform="translate(0 -100.679)" fill="#03abf2"/>
  <path id="Path_526" data-name="Path 526" d="M123.829,239.927c-.027,0-.056.048-.083.045L96.909,235.8h-6.67a.529.529,0,1,1,0-1.058h6.711c.027,0,.056-.048.083-.045l26.688,4.17a137.546,137.546,0,0,0,13.328-9.428c2.03-1.629,1.953-3.73,1.022-4.99-1.061-1.439-3.308-2.093-5.939-.309-3.712,2.515-6.631,4.729-6.661,4.75a.526.526,0,0,1-.449.092l-2.99-.74a.53.53,0,1,1,.256-1.028l2.743.678c.728-.547,3.329-2.482,6.5-4.634,3.2-2.167,6.069-1.231,7.386.553,1.222,1.656,1.361,4.375-1.213,6.441a135.527,135.527,0,0,1-13.61,9.6A.536.536,0,0,1,123.829,239.927Z" transform="translate(-63.045 -156.018)" fill="#1c428c"/>
  <g id="Group_816" data-name="Group 816" transform="translate(14.104 59.916)">
    <path id="Path_527" data-name="Path 527" d="M54.774,224.363H50.363a.529.529,0,1,1,0-1.058h4.414a1.439,1.439,0,0,0,1.358-1.352v-18a1.4,1.4,0,0,0-1.358-1.311h-6.8a.529.529,0,0,1,0-1.058h6.795a2.459,2.459,0,0,1,2.416,2.369v18A2.492,2.492,0,0,1,54.774,224.363Z" transform="translate(-47.45 -201.58)" fill="#1c428c"/>
  </g>
  <g id="Group_817" data-name="Group 817" transform="translate(83.457 16.464)">
    <path id="Path_528" data-name="Path 528" d="M289.908,77.379h-6.795a2.266,2.266,0,0,1-2.333-2.232V57.741a2.37,2.37,0,0,1,2.333-2.351h6.795a.529.529,0,1,1,0,1.058h-6.795a1.31,1.31,0,0,0-1.275,1.293V75.147a1.208,1.208,0,0,0,1.275,1.171h6.795a.531.531,0,0,1,0,1.061Z" transform="translate(-280.78 -55.39)" fill="#1c428c"/>
  </g>
  <path id="Path_529" data-name="Path 529" d="M296.926,110.045a1.223,1.223,0,1,1-1.222-1.225A1.222,1.222,0,0,1,296.926,110.045Z" transform="translate(-206.951 -76.475)" fill="#1c428c"/>
  <path id="Path_530" data-name="Path 530" d="M62.546,257.295a1.223,1.223,0,1,1-1.222-1.225A1.222,1.222,0,0,1,62.546,257.295Z" transform="translate(-42.236 -179.958)" fill="#1c428c"/>
  <g id="Group_818" data-name="Group 818" transform="translate(31.112 13.578)">
    <path id="Path_531" data-name="Path 531" d="M109.22,63.616a4.555,4.555,0,0,1-3.7-1.81c-1.222-1.653-1.361-4.375,1.213-6.441a135.526,135.526,0,0,1,13.61-9.6.535.535,0,0,1,.354-.08l26.837,4.206h6.673a.529.529,0,0,1,0,1.058h-6.711a.392.392,0,0,1-.083.006l-26.688-4.188A136.715,136.715,0,0,0,107.4,56.188c-2.03,1.629-1.953,3.727-1.022,4.985,1.061,1.436,3.308,2.09,5.939.306,3.712-2.515,6.631-4.732,6.661-4.753a.526.526,0,0,1,.449-.092l2.99.737a.53.53,0,1,1-.256,1.028l-2.743-.678c-.728.547-3.329,2.482-6.5,4.634A6.562,6.562,0,0,1,109.22,63.616Z" transform="translate(-104.674 -45.681)" fill="#1c428c"/>
  </g>
  <path id="Path_532" data-name="Path 532" d="M197.008,96.27h-.015l-4.744-.113a.521.521,0,0,1-.137-.012c-.155-.048-15.426-4.649-20.788-6.322a.536.536,0,0,1-.279-.205A4.315,4.315,0,0,1,170.92,85c.589-.936,2.131-2.422,5.838-1.852,3.561.55,9.88,1.572,9.945,1.584a.529.529,0,1,1-.172,1.043c-.062-.009-6.379-1.034-9.936-1.581-2.3-.354-4,.134-4.779,1.37a3.28,3.28,0,0,0,.009,3.305c5.323,1.659,19.424,5.915,20.527,6.248l4.562.128,3.867-1.572a.529.529,0,1,1,.4.981l-3.971,1.6A.555.555,0,0,1,197.008,96.27Z" transform="translate(-119.689 -58.346)" fill="#1c428c"/>
  <path id="Path_533" data-name="Path 533" d="M150.439,136.436c-6.334,0-13.069-1.733-13.069-4.943s6.732-4.943,13.069-4.943,13.066,1.733,13.066,4.943S156.773,136.436,150.439,136.436Zm0-8.825c-7.077,0-12.008,2.045-12.008,3.882s4.931,3.882,12.008,3.882,12.008-2.045,12.008-3.882S157.513,127.611,150.439,127.611Z" transform="translate(-96.539 -88.935)" fill="#ff5963"/>
  <path id="Path_534" data-name="Path 534" d="M150.973,154.645c-5.309,0-10.023-1.014-12.308-2.645a5.709,5.709,0,0,1-1.382-1.341c-.119-.2-.214-.363-.086-4.738.009-.268.012-.452.012-.5a.529.529,0,1,1,1.058,0c0,.056-.006.25-.015.532-.071,2.437-.08,3.855-.027,4.218a5.252,5.252,0,0,0,1.055.966c2.084,1.489,6.673,2.449,11.693,2.449,5.368,0,9.449-1.263,11.316-2.348a.531.531,0,0,1,.532.918C160.214,153.667,155.565,154.645,150.973,154.645Z" transform="translate(-96.374 -101.824)" fill="#ff5963"/>
  <path id="Path_535" data-name="Path 535" d="M155.99,188.2c-4.64,0-8.911-.791-11.431-2.11a.53.53,0,1,1,.493-.939c2.375,1.245,6.462,1.988,10.938,1.988,4.643,0,8.941-.823,11.223-2.146a.531.531,0,0,1,.532.918C165.276,187.339,160.88,188.2,155.99,188.2Z" transform="translate(-101.392 -129.953)" fill="#ff5963"/>
  <path id="Path_536" data-name="Path 536" d="M196.658,206.211a.529.529,0,0,1-.059-1.055,19.141,19.141,0,0,0,7.056-1.923.531.531,0,1,1,.532.918,20.141,20.141,0,0,1-7.469,2.057A.418.418,0,0,1,196.658,206.211Z" transform="translate(-137.833 -142.776)" fill="#ff5963"/>
  <path id="Path_537" data-name="Path 537" d="M113.84,213.593a10.031,10.031,0,0,1-1.557-.128c-3.561-.547-9.88-1.572-9.945-1.581a.528.528,0,1,1,.169-1.043c.062.012,6.379,1.034,9.936,1.581,2.3.354,4-.134,4.779-1.37a3.28,3.28,0,0,0-.009-3.305c-5.323-1.659-19.421-5.912-20.527-6.248l-4.56-.128-3.87,1.572a.529.529,0,0,1-.4-.981l3.971-1.614a.592.592,0,0,1,.214-.039l4.744.131a.525.525,0,0,1,.137.021c.155.048,15.426,4.652,20.788,6.328a.526.526,0,0,1,.279.208,4.315,4.315,0,0,1,.125,4.616C117.621,212.407,116.438,213.593,113.84,213.593Z" transform="translate(-61.513 -140.772)" fill="#1c428c"/>
</svg>
