<svg id="Layer_1" data-name="Layer 1" xmlns="http://www.w3.org/2000/svg" viewBox="0 0 432.6 103.32"><defs><style>.cls-1{fill:#5c5c5c;}.cls-2{fill:#e83d52;}</style></defs><title>logo_yobota_new_2018</title><path class="cls-1" d="M218.89,462l12.52,40.26c1.74,5.53,6.5,3.78,6.4,3.78l14.74-44h8.05l-22.69,67.81-7.28,9.89h-4.46l9.12-26.19c-2,0-8.44-.19-11.64-10.67L211,462Zm69.55-.48c17.36,0,22.7,6.5,22.7,27,0,19.11-5.34,25.51-22.7,25.51s-22.7-7.08-22.7-25.51C265.74,467.44,271.56,461.53,288.44,461.53Zm0,45.3c10.48,0,15.52-1.36,15.52-18.34,0-18.43-4.17-19.78-15.52-19.78-10.86,0-15.52,1.26-15.52,19.78C272.92,505.66,278.45,506.83,288.44,506.83Zm31.43-69.45h7v27.74A60,60,0,0,1,346,461.24c14.65,0,17,13.58,17,26.77,0,11.83-2.91,26.09-17,26.09-6.59,0-16.49-4.46-19-6.3L325,513.52h-5.14ZM346,506.92c6.31,0,9.8-6.3,9.8-18.91,0-15.81-3.59-19.6-9.8-19.6a67,67,0,0,0-19,2.53v31.52C332.19,504.6,338.3,506.92,346,506.92Zm48.5-45.39c17.36,0,22.7,6.5,22.7,27,0,19.11-5.34,25.51-22.7,25.51s-22.7-7.08-22.7-25.51C371.76,467.44,377.58,461.53,394.46,461.53Zm0,45.3c10.48,0,15.52-1.36,15.52-18.34,0-18.43-4.17-19.78-15.52-19.78-10.87,0-15.52,1.26-15.52,19.78C378.94,505.66,384.47,506.83,394.46,506.83ZM424,463.66l9.6-1.74,1.75-14.36h5.43v14.36h15v7.17h-15v26c0,8.44,2.23,10.38,5.53,11.15,0,0,7.95,2,8.63,2v5.14h-8.54c-7.47,0-12.8-4.65-12.8-18.33v-26H424Zm40.54,31.72c0-7.76,4.85-12.9,12.9-12.9,0,0,21.54.1,21.54,0s.09-6.4,0-6.5c0-5.92-3.11-8-8-8-7,0-15.42.48-24.83,1.16V464c6.89-1.94,15.52-2.81,25.12-2.91,8.06-.09,14.85,4.27,14.85,14.94v37.54h-5.34l-1.84-6.21c-.2,0-12.71,6.79-21.54,6.79-7.08,0-12.9-4.56-12.9-12.8Zm12.9,11.54c7.76,0,21.54-4.94,21.54-4.94V488.11l-21.54,1.55c-4.17.38-5.72,3.2-5.72,6.3v4.85C471.67,505.47,474.1,506.92,477.39,506.92Z" transform="translate(-73.5 -436.39)"/><path class="cls-2" d="M73.5,502.31v10l44.34,26.64,13.32-7.08L73.72,497.34Zm8.65-15,53,31.89V455.53ZM148.05,522,161,515V462.73L148.06,455Zm-31.71-85.58L73.5,462.13v15.09L129,443.87Z" transform="translate(-73.5 -436.39)"/></svg>